# xmcd CD database file
#
# Track frame offsets:
#	150
#	16173
#	29450
#	48637
#	66196
#	80476
#	96561
#	113906
#	134699
#	166569
#
# Disc length: 2482 seconds
#
# Revision: 0
# Processed by: cddbd v1.5.1PL2 Copyright (c) Steve Scherf et al.
# Submitted via: CDex 1.51
#
DISCID=8409b00a
DTITLE=everset - viridian FILE
DYEAR=2005
DGENRE=Japanese Rock
TTITLE0=SPICY DOG
TTITLE1=トビダセ!!!!〜east-west jet set〜
TTITLE2=LIMIT BREAK
TTITLE3=SUMMER VACATION
TTITLE4=セイヴ ザ クィーン
TTITLE5=MONKEY PUNCH
TTITLE6=HYPER MISSION
TTITLE7=SET UP/FLOW
TTITLE8=7 minutes
TTITLE9=エヴァship
EXTD=YEAR: 2005
EXTT0=
EXTT1=
EXTT2=
EXTT3=
EXTT4=
EXTT5=
EXTT6=
EXTT7=
EXTT8=
EXTT9=
PLAYORDER=
